<?xml version="1.0" standalone="no"?>
<!DOCTYPE svg PUBLIC "-//W3C//DTD SVG 20010904//EN"
 "http://www.w3.org/TR/2001/REC-SVG-20010904/DTD/svg10.dtd">
<svg version="1.0" xmlns="http://www.w3.org/2000/svg"
 width="232.000000pt" height="232.000000pt" viewBox="0 0 232.000000 232.000000"
 preserveAspectRatio="xMidYMid meet">
<metadata>
Created by potrace 1.11, written by Peter Selinger 2001-2013
</metadata>
<g transform="translate(0.000000,232.000000) scale(0.100000,-0.100000)"
fill="#000000" stroke="none">
<path d="M1077 2284 c-1 -2 -30 -6 -62 -9 -356 -34 -702 -282 -869 -622 -81
-165 -113 -298 -115 -483 -2 -167 24 -303 87 -450 152 -361 469 -610 861 -680
71 -13 248 -15 326 -5 358 49 680 274 848 594 91 173 124 297 132 496 15 380
-180 757 -503 971 -120 80 -298 153 -415 169 -23 3 -50 8 -61 12 -20 5 -223
12 -229 7z"/>
</g>
</svg>
